<svg width="28" height="28" viewBox="0 0 28 28" fill="none" xmlns="http://www.w3.org/2000/svg">
<g clip-path="url(#clip0_417_1045)">
<path d="M16.3335 3.5V8.16667C16.3335 8.47609 16.4564 8.77283 16.6752 8.99162C16.894 9.21042 17.1907 9.33333 17.5002 9.33333H22.1668" stroke="#212121" stroke-width="1.75" stroke-linecap="round" stroke-linejoin="round"/>
<path d="M5.8335 9.33333V5.83333C5.8335 5.21449 6.07933 4.621 6.51691 4.18342C6.9545 3.74583 7.54799 3.5 8.16683 3.5H16.3335L22.1668 9.33333V22.1667C22.1668 22.7855 21.921 23.379 21.4834 23.8166C21.0458 24.2542 20.4523 24.5 19.8335 24.5H14.0002" stroke="#212121" stroke-width="1.75" stroke-linecap="round" stroke-linejoin="round"/>
<path d="M7 19.8333C8.933 19.8333 10.5 18.2662 10.5 16.3333C10.5 14.4003 8.933 12.8333 7 12.8333C5.067 12.8333 3.5 14.4003 3.5 16.3333C3.5 18.2662 5.067 19.8333 7 19.8333Z" stroke="#212121" stroke-width="1.75" stroke-linecap="round" stroke-linejoin="round"/>
<path d="M5.25 19.8333L3.5 25.6666L7 23.9166L10.5 25.6666L8.75 19.8333" stroke="#212121" stroke-width="1.75" stroke-linecap="round" stroke-linejoin="round"/>
</g>
<defs>
<clipPath id="clip0_417_1045">
<rect width="28" height="28" fill="white"/>
</clipPath>
</defs>
</svg>
