<svg width="28" height="28" viewBox="0 0 28 28" fill="none" xmlns="http://www.w3.org/2000/svg">
<g clip-path="url(#clip0_417_1040)">
<path d="M13.9999 3.50006C14.1539 3.50006 14.3067 3.50006 14.4584 3.50006C12.9596 4.89271 11.9963 6.76654 11.7357 8.79581C11.4752 10.8251 11.934 12.8815 13.0324 14.6076C14.1308 16.3337 15.7993 17.6203 17.7479 18.2438C19.6966 18.8673 21.802 18.7882 23.6984 18.0204C22.9689 19.7756 21.7767 21.2999 20.2488 22.4307C18.7209 23.5615 16.9148 24.2563 15.023 24.441C13.1312 24.6258 11.2247 24.2935 9.50695 23.4797C7.78918 22.6659 6.32454 21.401 5.26926 19.8201C4.21398 18.2391 3.60765 16.4014 3.51494 14.5029C3.42223 12.6043 3.84662 10.7162 4.74284 9.03999C5.63906 7.36374 6.9735 5.96222 8.6038 4.98491C10.2341 4.00761 12.0991 3.49118 13.9999 3.49072V3.50006Z" stroke="#212121" stroke-width="1.75" stroke-linecap="round" stroke-linejoin="round"/>
<path d="M19.8333 4.66675C19.8333 5.28559 20.0792 5.87908 20.5168 6.31666C20.9543 6.75425 21.5478 7.00008 22.1667 7.00008C21.5478 7.00008 20.9543 7.24591 20.5168 7.6835C20.0792 8.12108 19.8333 8.71458 19.8333 9.33341C19.8333 8.71458 19.5875 8.12108 19.1499 7.6835C18.7123 7.24591 18.1188 7.00008 17.5 7.00008C18.1188 7.00008 18.7123 6.75425 19.1499 6.31666C19.5875 5.87908 19.8333 5.28559 19.8333 4.66675Z" stroke="#212121" stroke-width="1.75" stroke-linecap="round" stroke-linejoin="round"/>
<path d="M22.1665 12.8334H24.4998M23.3332 11.6667V14.0001" stroke="#212121" stroke-width="1.75" stroke-linecap="round" stroke-linejoin="round"/>
</g>
<defs>
<clipPath id="clip0_417_1040">
<rect width="28" height="28" fill="white"/>
</clipPath>
</defs>
</svg>
