<svg width="28" height="28" viewBox="0 0 28 28" fill="none" xmlns="http://www.w3.org/2000/svg">
<g clip-path="url(#clip0_417_1029)">
<path d="M10.5002 12.8333C13.0775 12.8333 15.1668 10.744 15.1668 8.16667C15.1668 5.58934 13.0775 3.5 10.5002 3.5C7.92283 3.5 5.8335 5.58934 5.8335 8.16667C5.8335 10.744 7.92283 12.8333 10.5002 12.8333Z" stroke="#212121" stroke-width="1.75" stroke-linecap="round" stroke-linejoin="round"/>
<path d="M3.5 24.5V22.1667C3.5 20.929 3.99167 19.742 4.86683 18.8668C5.742 17.9917 6.92899 17.5 8.16667 17.5H12.8333C14.071 17.5 15.258 17.9917 16.1332 18.8668C17.0083 19.742 17.5 20.929 17.5 22.1667V24.5" stroke="#212121" stroke-width="1.5" stroke-linecap="round" stroke-linejoin="round"/>
<path d="M18.6665 3.5C19.6677 3.76531 20.5551 4.36794 21.1888 5.21289C21.8225 6.05784 22.1665 7.09704 22.1665 8.16667C22.1665 9.23629 21.8225 10.2755 21.1888 11.1204C20.5551 11.9654 19.6677 12.568 18.6665 12.8333" stroke="#212121" stroke-width="1.75" stroke-linecap="round" stroke-linejoin="round"/>
<path d="M24.5 24.5V22.1068C24.4941 21.0504 24.1476 20.0257 23.5145 19.1924C22.8814 18.3592 21.9973 17.7641 21 17.5" stroke="#212121" stroke-width="1.75" stroke-linecap="round" stroke-linejoin="round"/>
</g>
<defs>
<clipPath id="clip0_417_1029">
<rect width="28" height="28" fill="white"/>
</clipPath>
</defs>
</svg>
