<svg width="36" height="36" viewBox="0 0 36 36" fill="none" xmlns="http://www.w3.org/2000/svg">
<g clip-path="url(#clip0_359_1024)">
<path d="M21 4.5V10.5C21 10.8978 21.158 11.2794 21.4393 11.5607C21.7206 11.842 22.1022 12 22.5 12H28.5" stroke="#212121" stroke-width="2.25" stroke-linecap="round" stroke-linejoin="round"/>
<path d="M7.5 12V7.5C7.5 6.70435 7.81607 5.94129 8.37868 5.37868C8.94129 4.81607 9.70435 4.5 10.5 4.5H21L28.5 12V28.5C28.5 29.2956 28.1839 30.0587 27.6213 30.6213C27.0587 31.1839 26.2956 31.5 25.5 31.5H18" stroke="#212121" stroke-width="2.25" stroke-linecap="round" stroke-linejoin="round"/>
<path d="M9 25.5C11.4853 25.5 13.5 23.4853 13.5 21C13.5 18.5147 11.4853 16.5 9 16.5C6.51472 16.5 4.5 18.5147 4.5 21C4.5 23.4853 6.51472 25.5 9 25.5Z" stroke="#212121" stroke-width="2.25" stroke-linecap="round" stroke-linejoin="round"/>
<path d="M6.75 25.5L4.5 33L9 30.75L13.5 33L11.25 25.5" stroke="#212121" stroke-width="2.25" stroke-linecap="round" stroke-linejoin="round"/>
</g>
<defs>
<clipPath id="clip0_359_1024">
<rect width="36" height="36" fill="white"/>
</clipPath>
</defs>
</svg>
