<svg width="36" height="36" viewBox="0 0 36 36" fill="none" xmlns="http://www.w3.org/2000/svg">
<g clip-path="url(#clip0_359_1051)">
<path d="M18 4.49998C18.198 4.49998 18.3945 4.49998 18.5895 4.49998C16.6625 6.29054 15.4239 8.69974 15.0889 11.3088C14.754 13.9179 15.3439 16.5618 16.7561 18.7811C18.1683 21.0003 20.3135 22.6545 22.8189 23.4562C25.3242 24.2578 28.0313 24.1562 30.4695 23.169C29.5316 25.4257 27.9987 27.3855 26.0343 28.8394C24.0699 30.2932 21.7476 31.1865 19.3153 31.4241C16.883 31.6616 14.4319 31.2344 12.2233 30.1881C10.0148 29.1417 8.13165 27.5155 6.77486 25.4829C5.41807 23.4502 4.6385 21.0874 4.51931 18.6464C4.40011 16.2055 4.94575 13.7779 6.09803 11.6227C7.25032 9.46757 8.96602 7.66561 11.0621 6.40908C13.1582 5.15254 15.5561 4.48857 18 4.48798V4.49998Z" stroke="#212121" stroke-width="2.25" stroke-linecap="round" stroke-linejoin="round"/>
<path d="M25.5 6C25.5 6.79565 25.8161 7.55871 26.3787 8.12132C26.9413 8.68393 27.7044 9 28.5 9C27.7044 9 26.9413 9.31607 26.3787 9.87868C25.8161 10.4413 25.5 11.2044 25.5 12C25.5 11.2044 25.1839 10.4413 24.6213 9.87868C24.0587 9.31607 23.2956 9 22.5 9C23.2956 9 24.0587 8.68393 24.6213 8.12132C25.1839 7.55871 25.5 6.79565 25.5 6Z" stroke="#212121" stroke-width="2.25" stroke-linecap="round" stroke-linejoin="round"/>
<path d="M28.5 16.5H31.5M30 15V18" stroke="#212121" stroke-width="2.25" stroke-linecap="round" stroke-linejoin="round"/>
</g>
<defs>
<clipPath id="clip0_359_1051">
<rect width="36" height="36" fill="white"/>
</clipPath>
</defs>
</svg>
