<svg width="36" height="36" viewBox="0 0 36 36" fill="none" xmlns="http://www.w3.org/2000/svg">
<g clip-path="url(#clip0_348_894)">
<path d="M28.5 10.5H7.5C5.84315 10.5 4.5 11.8431 4.5 13.5V27C4.5 28.6569 5.84315 30 7.5 30H28.5C30.1569 30 31.5 28.6569 31.5 27V13.5C31.5 11.8431 30.1569 10.5 28.5 10.5Z" stroke="#212121" stroke-width="2.25" stroke-linecap="round" stroke-linejoin="round"/>
<path d="M12 10.5V7.5C12 6.70435 12.3161 5.94129 12.8787 5.37868C13.4413 4.81607 14.2044 4.5 15 4.5H21C21.7956 4.5 22.5587 4.81607 23.1213 5.37868C23.6839 5.94129 24 6.70435 24 7.5V10.5" stroke="#212121" stroke-width="2.25" stroke-linecap="round" stroke-linejoin="round"/>
<path d="M18 18V18.015" stroke="#212121" stroke-width="2.25" stroke-linecap="round" stroke-linejoin="round"/>
<path d="M4.5 19.5C8.68737 21.61 13.311 22.7091 18 22.7091C22.689 22.7091 27.3126 21.61 31.5 19.5" stroke="#212121" stroke-width="2.25" stroke-linecap="round" stroke-linejoin="round"/>
</g>
<defs>
<clipPath id="clip0_348_894">
<rect width="36" height="36" fill="white"/>
</clipPath>
</defs>
</svg>
