<svg width="62" height="62" viewBox="0 0 62 62" fill="none" xmlns="http://www.w3.org/2000/svg">
<path d="M33.3733 49C26.5697 49 22 45.1944 22 40.5C22 35.8056 26.5697 32 33.3733 32C39.4244 32 44.7663 35.0104 47.9256 38.9791C48.6364 39.872 48.6364 41.128 47.9256 42.0209C44.7663 45.9896 39.4244 49 33.3733 49Z" fill="#D2AC70" stroke="#292417" stroke-width="2"/>
<path d="M37 34.5C37 42.5758 31.1797 48 24 48C16.8203 48 11 42.5758 11 34.5C11 26.905 16.1479 16.7566 22.7331 12.6958C23.511 12.2161 24.489 12.2161 25.2669 12.6958C31.8521 16.7566 37 26.905 37 34.5Z" fill="#BD9556" stroke="#292417" stroke-width="2"/>
<path d="M43.1429 38.7224C42.1905 38.1482 39.9429 37 38.5714 37M46 39.9526C44.6667 41.1829 40.8 43.4957 36 42.9052" stroke="#382911" stroke-width="2" stroke-linecap="round"/>
<path d="M22.4545 20C20.75 22.3 17.2727 28.5429 17 35.1143M30.2955 27.5571C30.8636 28.5429 32 31.1714 32 33.8C32 36.4286 30.8636 38.8381 30.2955 39.7143M21.7727 31.8286C21.3182 32.9238 20.4773 35.7714 20.75 38.4C21.0227 41.0286 21.5455 42.5619 21.7727 43" stroke="#382911" stroke-width="2" stroke-linecap="round"/>
</svg>
