<svg width="60" height="60" viewBox="0 0 60 60" fill="none" xmlns="http://www.w3.org/2000/svg">
<g clip-path="url(#clip0_346_709)">
<path d="M6.66665 53.3333H53.3333C54.421 53.3257 55.4903 53.0521 56.4479 52.5363C57.4056 52.0205 58.2225 51.2782 58.8273 50.3741C59.4322 49.4701 59.8067 48.4318 59.9181 47.3498C60.0296 46.2678 59.8746 45.175 59.4667 44.1667L35.8 3.33335C35.2235 2.29134 34.3783 1.42278 33.3525 0.817966C32.3266 0.213153 31.1575 -0.105835 29.9666 -0.105835C28.7758 -0.105835 27.6067 0.213153 26.5808 0.817966C25.555 1.42278 24.7098 2.29134 24.1333 3.33335L0.46665 44.1667C0.0664539 45.1519 -0.0922402 46.2186 0.00381633 47.2777C0.0998729 48.3368 0.447893 49.3575 1.01882 50.2547C1.58975 51.1519 2.36702 51.8994 3.28574 52.435C4.20446 52.9706 5.23797 53.2786 6.29998 53.3333" fill="#FFC84B"/>
<path d="M30 20V34M30 40V40.0333" stroke="#F05C2E" stroke-width="4" stroke-linecap="round" stroke-linejoin="round"/>
</g>
<defs>
<clipPath id="clip0_346_709">
<rect width="60" height="60" fill="white"/>
</clipPath>
</defs>
</svg>
