<svg width="62" height="62" viewBox="0 0 62 62" fill="none" xmlns="http://www.w3.org/2000/svg">
<rect width="62" height="62" fill="white"/>
<ellipse cx="31" cy="31.5" rx="12" ry="15.5" fill="#A5CA70" stroke="#292417" stroke-width="2"/>
<path d="M30.7751 30V40.5" stroke="#292417" stroke-width="2" stroke-linecap="round"/>
<path d="M30.5545 41.339C29.6653 33.8735 22.4833 30.4201 17.3589 29.3158C16.3646 29.1016 15.4384 29.8902 15.3485 30.9033C15.0997 33.7079 14.6477 38.6432 15.4775 44.8644C16.3775 51.6118 23.7244 54.4021 28.8594 54.912C29.7936 55.0048 30.6261 54.2441 30.7302 53.311C30.964 51.2155 31.2701 47.3477 30.5545 41.339Z" fill="#BF9C76" stroke="#292417" stroke-width="2" stroke-linecap="round"/>
<path d="M6 55H55" stroke="#292417" stroke-width="2" stroke-linecap="round"/>
<path d="M15 58H46" stroke="#292417" stroke-width="2" stroke-linecap="round"/>
<path d="M46.5545 42.661C45.6653 50.1265 38.4833 53.5799 33.3589 54.6842C32.3646 54.8984 31.4384 54.1098 31.3485 53.0967C31.0997 50.2921 30.6477 45.3568 31.4775 39.1356C32.3775 32.3882 39.7244 29.5979 44.8594 29.088C45.7936 28.9952 46.6261 29.7559 46.7302 30.689C46.964 32.7845 47.2701 36.6523 46.5545 42.661Z" fill="#B0875D" stroke="#292417" stroke-width="2" stroke-linecap="round"/>
<path d="M31 5V12" stroke="#292417" stroke-width="2" stroke-linecap="round"/>
<path d="M19.1042 9.37097L22.4759 12.7427" stroke="#292417" stroke-width="2" stroke-linecap="round"/>
<path d="M39.7668 12.7427L43.1385 9.37098" stroke="#292417" stroke-width="2" stroke-linecap="round"/>
</svg>
