<svg width="24" height="24" viewBox="0 0 24 24" fill="none" xmlns="http://www.w3.org/2000/svg">
<rect width="24" height="24" fill="white"/>
<path d="M4 17.8571C4 18.4883 4.51167 19 5.14286 19L9.78571 19C10.0619 19 10.2857 18.7761 10.2857 18.5V15.5714C10.2857 14.9402 10.7974 14.4286 11.4286 14.4286H12.5714C13.2026 14.4286 13.7143 14.9402 13.7143 15.5714V18.5C13.7143 18.7761 13.9381 19 14.2143 19L18.8571 19C19.4883 19 20 18.4883 20 17.8571V11H4V17.8571Z" stroke="black"/>
<path d="M3.04499 9.25722L4.58619 5.02914C4.6437 4.44491 5.12764 4 5.70561 4H18.2944C18.8724 4 19.3563 4.44491 19.4138 5.02914L20.955 9.25722C20.9845 9.40491 21 9.55776 21 9.71429C21 10.9767 19.9926 12 18.75 12C18.1108 12 17.5339 11.7292 17.1243 11.2945C17.0909 11.2591 17.0341 11.2591 17.0007 11.2945C16.5911 11.7292 16.0142 12 15.375 12C14.7358 12 14.1589 11.7292 13.7493 11.2945C13.7159 11.2591 13.6591 11.2591 13.6257 11.2945C13.2161 11.7292 12.6392 12 12 12C11.3608 12 10.7839 11.7292 10.3743 11.2945C10.3409 11.2591 10.2841 11.2591 10.2507 11.2945C9.84112 11.7292 9.26418 12 8.625 12C7.98582 12 7.40888 11.7292 6.99928 11.2945C6.96593 11.2591 6.90907 11.2591 6.87572 11.2945C6.46612 11.7292 5.88918 12 5.25 12C4.00736 12 3 10.9767 3 9.71429C3 9.55776 3.01549 9.40491 3.04499 9.25722Z" fill="white" stroke="black"/>
</svg>
