<svg width="24" height="24" viewBox="0 0 24 24" fill="none" xmlns="http://www.w3.org/2000/svg">
<g clip-path="url(#clip0_520_1865)">
<path d="M7.5 3.75H4.5C4.08579 3.75 3.75 4.08579 3.75 4.5V19.5C3.75 19.9142 4.08579 20.25 4.5 20.25H7.5C7.91421 20.25 8.25 19.9142 8.25 19.5V4.5C8.25 4.08579 7.91421 3.75 7.5 3.75Z" stroke="#B6B7B8" stroke-linecap="round" stroke-linejoin="round"/>
<path d="M3.75 7.5H8.25" stroke="#B6B7B8" stroke-linecap="round" stroke-linejoin="round"/>
<path d="M12 3.75H9C8.58579 3.75 8.25 4.08579 8.25 4.5V19.5C8.25 19.9142 8.58579 20.25 9 20.25H12C12.4142 20.25 12.75 19.9142 12.75 19.5V4.5C12.75 4.08579 12.4142 3.75 12 3.75Z" stroke="#B6B7B8" stroke-linecap="round" stroke-linejoin="round"/>
<path d="M8.25 16.5H12.75" stroke="#B6B7B8" stroke-linecap="round" stroke-linejoin="round"/>
<path d="M16.4566 3.50461L13.5466 4.28461C13.1448 4.39231 12.9064 4.80533 13.0141 5.20711L16.9141 19.7571C17.0218 20.1589 17.4348 20.3973 17.8366 20.2896L20.7466 19.5096C21.1484 19.4019 21.3868 18.9889 21.2791 18.5871L17.3791 4.03711C17.2714 3.63533 16.8584 3.39692 16.4566 3.50461Z" stroke="#B6B7B8" stroke-linecap="round" stroke-linejoin="round"/>
<path d="M16.05 16.8L20.4 15.6282" stroke="#B6B7B8" stroke-linecap="round" stroke-linejoin="round"/>
<path d="M13.7251 8.1L18.0751 6.9375" stroke="#B6B7B8" stroke-linecap="round" stroke-linejoin="round"/>
</g>
<defs>
<clipPath id="clip0_520_1865">
<rect width="24" height="24" fill="white"/>
</clipPath>
</defs>
</svg>
