<svg width="132" height="132" viewBox="0 0 132 132" fill="none" xmlns="http://www.w3.org/2000/svg">
<rect width="132" height="132" fill="white"/>
<path d="M108.121 97.7218C104.367 112.383 86.7713 117.864 74.55 119.07C72.1883 119.303 70.2453 117.306 70.2652 114.966C70.3135 109.271 70.465 99.646 73.6863 87.8635C77.2982 74.6521 95.0808 70.512 107.191 70.4748C109.4 70.468 111.194 72.3879 111.219 74.5705C111.269 78.8829 111.007 86.4472 108.121 97.7218Z" fill="#B0875D"/>
<path d="M65.8758 91.2283C62.1225 76.5672 44.5264 71.0864 32.3051 69.8801C29.9434 69.647 28.0004 71.6443 28.0203 73.984C28.0686 79.6795 28.2201 89.304 31.4414 101.087C35.0533 114.298 52.8359 118.438 64.9463 118.475C67.1554 118.482 68.9486 116.562 68.9741 114.38C69.0244 110.067 68.7622 102.503 65.8758 91.2283Z" fill="#8A745D"/>
<path d="M69.0204 39.6667C69.0204 31.3123 65.7235 22.1335 59.855 16.2261C53.9866 10.3187 46.0272 7 37.7279 7H22.0816V17.5C22.0816 25.8543 25.3785 33.8665 31.247 39.7739C37.1155 45.6813 45.0749 49 53.3741 49H69.0204" fill="#A4CB72"/>
<path d="M69.0204 42C69.0204 34.5739 71.9876 27.452 77.2692 22.201C82.5509 16.95 89.7143 14 97.1837 14H111.265V18.6667C111.265 26.0927 108.298 33.2146 103.016 38.4657C97.7348 43.7167 90.5714 46.6667 83.102 46.6667H69.0204" fill="#A4CA71"/>
<path d="M8 117.5C7.17157 117.5 6.5 118.172 6.5 119C6.5 119.828 7.17157 120.5 8 120.5V117.5ZM123 120.5C123.828 120.5 124.5 119.828 124.5 119C124.5 118.172 123.828 117.5 123 117.5V120.5ZM29.1224 124.5C28.294 124.5 27.6224 125.172 27.6224 126C27.6224 126.828 28.294 127.5 29.1224 127.5V124.5ZM101.878 127.5C102.706 127.5 103.378 126.828 103.378 126C103.378 125.172 102.706 124.5 101.878 124.5V127.5ZM74.55 119.07L74.4026 117.577L74.55 119.07ZM108.121 97.7218L109.574 98.0938L108.121 97.7218ZM111.219 74.5705L109.719 74.588V74.588L111.219 74.5705ZM107.191 70.4748L107.196 71.9748L107.191 70.4748ZM73.6863 87.8635L72.2394 87.4679L73.6863 87.8635ZM70.2652 114.966L71.7651 114.979L70.2652 114.966ZM32.3051 69.8801L32.1577 71.3728L32.3051 69.8801ZM65.8758 91.2283L67.329 90.8563L65.8758 91.2283ZM68.9741 114.38L67.4742 114.362V114.362L68.9741 114.38ZM64.9463 118.475L64.9509 116.975L64.9463 118.475ZM31.4414 101.087L29.9945 101.482L31.4414 101.087ZM28.0203 73.984L29.5202 73.9712L28.0203 73.984ZM22.0816 7V5.5C21.2532 5.5 20.5816 6.17157 20.5816 7H22.0816ZM22.0816 17.5H20.5816H22.0816ZM69.0204 50.5C69.8488 50.5 70.5204 49.8284 70.5204 49C70.5204 48.1716 69.8488 47.5 69.0204 47.5V50.5ZM67.5204 42C67.5204 42.8284 68.192 43.5 69.0204 43.5C69.8488 43.5 70.5204 42.8284 70.5204 42H67.5204ZM111.265 14H112.765C112.765 13.1716 112.094 12.5 111.265 12.5V14ZM69.0204 45.1667C68.192 45.1667 67.5204 45.8382 67.5204 46.6667C67.5204 47.4951 68.192 48.1667 69.0204 48.1667V45.1667ZM67.5204 113.333C67.5204 114.162 68.192 114.833 69.0204 114.833C69.8488 114.833 70.5204 114.162 70.5204 113.333H67.5204ZM67.7675 44.145C67.2953 44.8257 67.4643 45.7602 68.145 46.2325C68.8257 46.7047 69.7602 46.5357 70.2325 45.855L67.7675 44.145ZM99.725 27.154C100.546 27.0467 101.125 26.2938 101.018 25.4723C100.911 24.6509 100.158 24.072 99.3363 24.1793L99.725 27.154ZM66.6599 46.6739C67.0321 47.414 67.9338 47.7123 68.6739 47.3401C69.414 46.9679 69.7123 46.0662 69.3401 45.3261L66.6599 46.6739ZM37.7211 17.2168C36.9204 17.0045 36.0991 17.4815 35.8868 18.2823C35.6745 19.083 36.1516 19.9043 36.9523 20.1166L37.7211 17.2168ZM8 120.5H123V117.5H8V120.5ZM29.1224 127.5H101.878V124.5H29.1224V127.5ZM74.6973 120.563C80.9334 119.947 88.5902 118.24 95.2074 114.77C101.832 111.296 107.557 105.974 109.574 98.0938L106.668 97.3498C104.932 104.131 99.9816 108.879 93.8143 112.113C87.6398 115.35 80.3878 116.986 74.4026 117.577L74.6973 120.563ZM109.574 98.0938C112.498 86.6723 112.771 78.9746 112.719 74.553L109.719 74.588C109.768 78.7911 109.516 86.2221 106.668 97.3498L109.574 98.0938ZM107.187 68.9748C100.992 68.9938 93.3119 70.0582 86.6712 72.8457C80.0384 75.63 74.2152 80.2409 72.2394 87.4679L75.1332 88.2591C76.7693 82.2746 81.6433 78.2099 87.8324 75.6119C94.0136 73.0172 101.28 71.993 107.196 71.9748L107.187 68.9748ZM72.2394 87.4679C68.9658 99.442 68.8139 109.223 68.7652 114.953L71.7651 114.979C71.8132 109.318 71.9643 99.85 75.1332 88.2591L72.2394 87.4679ZM112.719 74.553C112.685 71.6149 110.285 68.9653 107.187 68.9748L107.196 71.9748C108.515 71.9707 109.702 73.1609 109.719 74.588L112.719 74.553ZM74.4026 117.577C73.0301 117.713 71.7519 116.532 71.7651 114.979L68.7652 114.953C68.7387 118.079 71.3466 120.893 74.6973 120.563L74.4026 117.577ZM32.1577 71.3728C38.1429 71.9636 45.3949 73.5996 51.5694 76.8371C57.7367 80.0709 62.6867 84.8191 64.4227 91.6003L67.329 90.8563C65.3117 82.9764 59.5869 77.6537 52.9625 74.1802C46.3453 70.7105 38.6885 69.0029 32.4524 68.3873L32.1577 71.3728ZM64.4227 91.6003C67.2714 102.728 67.5233 110.159 67.4742 114.362L70.474 114.397C70.5256 109.975 70.2529 102.278 67.329 90.8563L64.4227 91.6003ZM64.9509 116.975C59.0348 116.957 51.7687 115.933 45.5875 113.338C39.3984 110.74 34.5244 106.675 32.8883 100.691L29.9945 101.482C31.9703 108.709 37.7935 113.32 44.4263 116.104C51.067 118.892 58.7474 119.956 64.9417 119.975L64.9509 116.975ZM32.8883 100.691C29.7194 89.1 29.5683 79.6324 29.5202 73.9712L26.5203 73.9967C26.569 79.7267 26.7209 89.508 29.9945 101.482L32.8883 100.691ZM67.4742 114.362C67.4575 115.789 66.2703 116.979 64.9509 116.975L64.9417 119.975C68.0404 119.985 70.4397 117.335 70.474 114.397L67.4742 114.362ZM32.4524 68.3873C29.1017 68.0566 26.4938 70.8707 26.5203 73.9967L29.5202 73.9712C29.507 72.4179 30.7852 71.2374 32.1577 71.3728L32.4524 68.3873ZM70.5204 39.6667C70.5204 30.9745 67.1054 21.3962 60.9192 15.169L58.7909 17.2833C64.3417 22.8709 67.5204 31.6502 67.5204 39.6667H70.5204ZM60.9192 15.169C54.7702 8.9792 46.4282 5.5 37.7279 5.5V8.5C45.6261 8.5 53.2029 11.6583 58.7909 17.2833L60.9192 15.169ZM37.7279 5.5H22.0816V8.5H37.7279V5.5ZM20.5816 7V17.5H23.5816V7H20.5816ZM20.5816 17.5C20.5816 26.249 24.0342 34.6416 30.1828 40.831L32.3112 38.7167C26.7229 33.0914 23.5816 25.4597 23.5816 17.5H20.5816ZM30.1828 40.831C36.3319 47.0208 44.6738 50.5 53.3741 50.5V47.5C45.4759 47.5 37.8991 44.3417 32.3112 38.7167L30.1828 40.831ZM53.3741 50.5H69.0204V47.5H53.3741V50.5ZM70.5204 42C70.5204 34.9746 73.3274 28.2351 78.3268 23.2647L76.2117 21.1373C70.6478 26.6689 67.5204 34.1733 67.5204 42H70.5204ZM78.3268 23.2647C83.3265 18.2941 90.1093 15.5 97.1837 15.5V12.5C89.3193 12.5 81.7753 15.6059 76.2117 21.1373L78.3268 23.2647ZM97.1837 15.5H111.265V12.5H97.1837V15.5ZM109.765 14V18.6667H112.765V14H109.765ZM109.765 18.6667C109.765 25.6921 106.958 32.4315 101.959 37.4019L104.074 39.5294C109.638 33.9978 112.765 26.4934 112.765 18.6667H109.765ZM101.959 37.4019C96.9592 42.3726 90.1764 45.1667 83.102 45.1667V48.1667C90.9664 48.1667 98.5105 45.0607 104.074 39.5294L101.959 37.4019ZM83.102 45.1667H69.0204V48.1667H83.102V45.1667ZM70.5204 113.333V39.6667H67.5204V113.333H70.5204ZM70.2325 45.855C75.6214 38.0871 86.236 28.9166 99.725 27.154L99.3363 24.1793C84.764 26.0834 73.4785 35.9129 67.7675 44.145L70.2325 45.855ZM69.3401 45.3261C67.3012 41.2719 63.0532 35.2438 57.5406 29.7538C52.0383 24.2741 45.1262 19.18 37.7211 17.2168L36.9523 20.1166C43.6289 21.8867 50.0927 26.5704 55.4237 31.8795C60.7444 37.1784 64.7872 42.9503 66.6599 46.6739L69.3401 45.3261Z" fill="#292417"/>
</svg>
