<svg width="20" height="17" viewBox="0 0 20 17" fill="none" xmlns="http://www.w3.org/2000/svg">
<path d="M0.75 5.40063L0.75 5.4005C0.749894 4.78259 0.872961 4.17085 1.11201 3.60104C1.35106 3.03122 1.70129 2.51477 2.14224 2.08186C2.58319 1.64895 3.10602 1.30826 3.68016 1.07972C4.25431 0.851173 4.86825 0.739354 5.48611 0.750797L5.49505 0.750963L5.50398 0.750915C6.24667 0.746972 6.98172 0.900912 7.6604 1.20253C8.33909 1.50415 8.94591 1.94657 9.44065 2.50045L10 3.12665L10.5593 2.50045C11.0541 1.94657 11.6609 1.50415 12.3396 1.20253C13.0183 0.900912 13.7533 0.746972 14.496 0.750915L14.505 0.750963L14.5139 0.750797C15.1317 0.739354 15.7457 0.851173 16.3198 1.07972C16.894 1.30826 17.4168 1.64895 17.8578 2.08186C18.2987 2.51477 18.6489 3.03122 18.888 3.60104C19.127 4.17085 19.2501 4.78259 19.25 5.4005V5.40063C19.25 7.67929 17.9417 9.54529 16.0362 11.2885C15.0885 12.1555 14.0225 12.9656 12.9455 13.7647C12.7933 13.8775 12.6407 13.9903 12.4882 14.1031C11.6287 14.7386 10.7703 15.3732 10.0024 16.011C9.21645 15.3525 8.33556 14.7001 7.45508 14.048C7.32291 13.9501 7.19076 13.8522 7.05894 13.7543C5.98133 12.9541 4.91496 12.1453 3.9663 11.2799C2.05944 9.54022 0.75 7.68057 0.75 5.40063Z" stroke="white" stroke-width="1.5"/>
</svg>
