<svg width="20" height="17" viewBox="0 0 20 17" fill="none" xmlns="http://www.w3.org/2000/svg">
<path d="M7.94048e-08 5.40063C-0.000122982 4.68304 0.142796 3.97262 0.420403 3.31089C0.69801 2.64917 1.10474 2.04941 1.61681 1.54667C2.12889 1.04393 2.73604 0.648299 3.40279 0.382895C4.06953 0.11749 4.78249 -0.0123627 5.5 0.000926023C6.34896 -0.00358223 7.18919 0.172386 7.96499 0.517169C8.74079 0.861951 9.43445 1.36767 10 2.00082C10.5655 1.36767 11.2592 0.861951 12.035 0.517169C12.8108 0.172386 13.651 -0.00358223 14.5 0.000926023C15.2175 -0.0123627 15.9305 0.11749 16.5972 0.382895C17.264 0.648299 17.8711 1.04393 18.3832 1.54667C18.8953 2.04941 19.302 2.64917 19.5796 3.31089C19.8572 3.97262 20.0001 4.68304 20 5.40063C20 10.5942 14.0013 13.6138 10.3361 16.7098C10.1425 16.8733 9.85814 16.8726 9.66534 16.7082C6.00707 13.5891 7.94048e-08 10.5985 7.94048e-08 5.40063Z" fill="#E15765"/>
</svg>
