<svg width="24" height="24" viewBox="0 0 24 24" fill="none" xmlns="http://www.w3.org/2000/svg">
<g clip-path="url(#clip0_770_1339)">
<path d="M17.2688 9.34686H21.0188V5.59686" fill="#5C5E60"/>
<path d="M17.2688 9.34686H21.0188V5.59686" stroke="#5C5E60" stroke-width="2" stroke-linecap="round" stroke-linejoin="round"/>
<path d="M21.0187 9.34688L17.8312 6.16875C16.6777 5.0143 15.2077 4.22789 13.6072 3.90902C12.0067 3.59014 10.3475 3.75313 8.83966 4.37735C7.33177 5.00158 6.0429 6.059 5.13608 7.41585C4.22926 8.7727 3.74524 10.368 3.74524 12C3.74524 13.632 4.22926 15.2273 5.13608 16.5842C6.0429 17.941 7.33177 18.9984 8.83966 19.6227C9.69082 19.975 10.5902 20.1804 11.5 20.2351" stroke="#5C5E60" stroke-width="2" stroke-linecap="round" stroke-linejoin="round"/>
<circle cx="15" cy="20" r="0.5" fill="#5C5E60" stroke="#5C5E60"/>
<circle cx="18" cy="18.5" r="0.5" fill="#5C5E60" stroke="#5C5E60"/>
<circle cx="20" cy="16" r="0.5" fill="#5C5E60" stroke="#5C5E60"/>
</g>
<defs>
<clipPath id="clip0_770_1339">
<rect width="24" height="24" fill="white"/>
</clipPath>
</defs>
</svg>
