<svg width="180" height="180" viewBox="0 0 180 180" fill="none" xmlns="http://www.w3.org/2000/svg">
<path d="M147.462 157.968C162.771 143.048 172.277 122.204 172.277 99.1387C172.277 84.4821 168.439 70.7221 161.712 58.8093M148.228 157.228C141.938 163.888 134.47 158.847 131.336 157.384C107.26 147.441 94.1824 155.716 89.7568 162.617C89.4288 163.128 88.6286 163.128 88.3006 162.617C83.875 155.716 70.7972 147.441 46.7211 157.383M140.828 34.5016C126.867 23.5382 109.266 17 90.1387 17C44.7747 17 8 53.7747 8 99.1387C8 117.766 14.2003 134.945 24.6497 148.724" stroke="#419361" stroke-width="8" stroke-linecap="round" stroke-linejoin="round"/>
<path d="M89.7687 133.548C90.7497 123.447 91.8015 100.001 123.965 98.7766C124.079 98.7722 124.178 98.8669 124.178 98.98C124.095 125.461 108.399 133.548 89.7687 133.548ZM89.7687 133.548C88.7877 123.447 87.7359 100.001 55.5719 98.7766C55.4588 98.7722 55.3592 98.8669 55.3596 98.98C55.4426 125.461 71.1387 133.548 89.7687 133.548Z" stroke="#419361" stroke-width="8"/>
<path d="M25.0197 98.7686C25.0197 77.1994 35.5063 58.0795 51.6592 46.2292M155.258 98.7686C155.258 62.8044 126.103 33.6497 90.1386 33.6497C87.8902 33.6497 85.6684 33.7636 83.4787 33.986" stroke="#419361" stroke-width="8" stroke-linecap="round"/>
<path d="M43.5195 98.7687C43.5195 74.6312 61.8635 54.7782 85.3709 52.3902C86.9386 52.231 88.5291 52.1494 90.1388 52.1494C96.0048 52.1494 101.618 53.2328 106.789 55.2105M136.758 98.7687C136.758 90.2773 134.488 82.3161 130.521 75.459" stroke="#419361" stroke-width="8" stroke-linecap="round"/>
<circle cx="4.35821" cy="4.35821" r="4.35821" transform="matrix(-1 0 0 1 123.438 59.5492)" fill="#6BC3EF"/>
<circle cx="4.35821" cy="4.35821" r="4.35821" transform="matrix(-1 0 0 1 70.8989 33.6497)" fill="#E06D58"/>
<circle cx="4.35821" cy="4.35821" r="4.35821" transform="matrix(-1 0 0 1 39.0793 151.308)" fill="#874FDC"/>
<circle cx="4.35821" cy="4.35821" r="4.35821" transform="matrix(-1 0 0 1 156.738 41.0497)" fill="#F6CC46"/>
</svg>
